<mxfile host="app.diagrams.net" modified="2021-01-16T17:40:09.807Z" agent="5.0 (Windows NT 10.0; WOW64) AppleWebKit/537.36 (KHTML, like Gecko) Chrome/87.0.4280.107 Safari/537.36" etag="bIfWSgvdpzMTfpIkWBGG" version="14.2.4" type="github">
  <diagram name="Page-1" id="0783ab3e-0a74-02c8-0abd-f7b4e66b4bec">
    <mxGraphModel dx="898" dy="566" grid="1" gridSize="10" guides="1" tooltips="1" connect="1" arrows="1" fold="1" page="1" pageScale="1" pageWidth="850" pageHeight="1100" background="#ffffff" math="0" shadow="0">
      <root>
        <mxCell id="0" />
        <mxCell id="1" parent="0" />
        <mxCell id="1c1d494c118603dd-1" value="Transfert de fichier" style="swimlane;html=1;childLayout=stackLayout;startSize=20;rounded=0;shadow=0;comic=0;labelBackgroundColor=none;strokeWidth=1;fontFamily=Verdana;fontSize=12;align=center;" parent="1" vertex="1">
          <mxGeometry x="40" y="20" width="1770" height="940" as="geometry">
            <mxRectangle x="40" y="20" width="60" height="20" as="alternateBounds" />
          </mxGeometry>
        </mxCell>
        <mxCell id="1c1d494c118603dd-2" value="Utilisateur" style="swimlane;html=1;startSize=20;" parent="1c1d494c118603dd-1" vertex="1">
          <mxGeometry y="20" width="250" height="920" as="geometry" />
        </mxCell>
        <mxCell id="60571a20871a0731-4" value="" style="ellipse;whiteSpace=wrap;html=1;rounded=0;shadow=0;comic=0;labelBackgroundColor=none;strokeWidth=1;fillColor=#000000;fontFamily=Verdana;fontSize=12;align=center;" parent="1c1d494c118603dd-2" vertex="1">
          <mxGeometry x="100" y="30" width="40" height="40" as="geometry" />
        </mxCell>
        <mxCell id="1c1d494c118603dd-5" value="Vérifie l&#39;affichage" style="rounded=1;whiteSpace=wrap;html=1;shadow=0;comic=0;labelBackgroundColor=none;strokeWidth=1;fontFamily=Verdana;fontSize=12;align=center;arcSize=50;" parent="1c1d494c118603dd-2" vertex="1">
          <mxGeometry x="50" y="200" width="150" height="30" as="geometry" />
        </mxCell>
        <mxCell id="1c1d494c118603dd-3" value="Ecran" style="swimlane;html=1;startSize=20;" parent="1c1d494c118603dd-1" vertex="1">
          <mxGeometry x="250" y="20" width="250" height="920" as="geometry" />
        </mxCell>
        <mxCell id="opBcABUMivw20Xhu-yU0-65" value="Affichage menu lancement" style="rounded=1;whiteSpace=wrap;html=1;shadow=0;comic=0;labelBackgroundColor=none;strokeWidth=1;fontFamily=Verdana;fontSize=12;align=center;arcSize=50;" parent="1c1d494c118603dd-3" vertex="1">
          <mxGeometry x="40" y="150" width="170" height="30" as="geometry" />
        </mxCell>
        <mxCell id="opBcABUMivw20Xhu-yU0-83" value="Affiche message d&#39;initialisation SD" style="rounded=1;whiteSpace=wrap;html=1;shadow=0;comic=0;labelBackgroundColor=none;strokeWidth=1;fontFamily=Verdana;fontSize=12;align=center;arcSize=50;" parent="1c1d494c118603dd-3" vertex="1">
          <mxGeometry x="10" y="423.5" width="230" height="30" as="geometry" />
        </mxCell>
        <mxCell id="opBcABUMivw20Xhu-yU0-92" value="Affiche message d&#39;initialisation WiFi" style="rounded=1;whiteSpace=wrap;html=1;shadow=0;comic=0;labelBackgroundColor=none;strokeWidth=1;fontFamily=Verdana;fontSize=12;align=center;arcSize=50;" parent="1c1d494c118603dd-3" vertex="1">
          <mxGeometry x="10" y="570" width="230" height="30" as="geometry" />
        </mxCell>
        <mxCell id="opBcABUMivw20Xhu-yU0-80" value="Affiche message webserveur et IP" style="rounded=1;whiteSpace=wrap;html=1;shadow=0;comic=0;labelBackgroundColor=none;strokeWidth=1;fontFamily=Verdana;fontSize=12;align=center;arcSize=50;" parent="1c1d494c118603dd-3" vertex="1">
          <mxGeometry x="15" y="705" width="220" height="30" as="geometry" />
        </mxCell>
        <mxCell id="1c1d494c118603dd-4" value="Boutons" style="swimlane;html=1;startSize=20;" parent="1c1d494c118603dd-1" vertex="1">
          <mxGeometry x="500" y="20" width="250" height="920" as="geometry" />
        </mxCell>
        <mxCell id="1c1d494c118603dd-49" style="edgeStyle=none;rounded=0;html=1;dashed=1;labelBackgroundColor=none;startArrow=none;startFill=0;startSize=5;endArrow=oval;endFill=0;endSize=5;jettySize=auto;orthogonalLoop=1;strokeWidth=1;fontFamily=Verdana;fontSize=12;entryX=0.75;entryY=0;entryDx=0;entryDy=0;" parent="1c1d494c118603dd-4" source="1c1d494c118603dd-20" target="opBcABUMivw20Xhu-yU0-69" edge="1">
          <mxGeometry relative="1" as="geometry">
            <mxPoint x="85" y="281.8135593220338" as="targetPoint" />
          </mxGeometry>
        </mxCell>
        <mxCell id="1c1d494c118603dd-20" value="L&#39;affichage du menu est dynamique et change en fonction des choix avec les boutons" style="shape=note;whiteSpace=wrap;html=1;rounded=0;shadow=0;comic=0;labelBackgroundColor=none;strokeWidth=1;fontFamily=Verdana;fontSize=12;align=center;size=20;" parent="1c1d494c118603dd-4" vertex="1">
          <mxGeometry x="40" y="150" width="190" height="70" as="geometry" />
        </mxCell>
        <mxCell id="opBcABUMivw20Xhu-yU0-69" value="Choisit le mode transfert de fichier" style="rounded=1;whiteSpace=wrap;html=1;shadow=0;comic=0;labelBackgroundColor=none;strokeWidth=1;fontFamily=Verdana;fontSize=12;align=center;arcSize=50;" parent="1c1d494c118603dd-4" vertex="1">
          <mxGeometry x="30" y="270" width="190" height="40" as="geometry" />
        </mxCell>
        <mxCell id="opBcABUMivw20Xhu-yU0-1" value="Microcontrôleur" style="swimlane;html=1;startSize=20;" parent="1c1d494c118603dd-1" vertex="1">
          <mxGeometry x="750" y="20" width="270" height="920" as="geometry" />
        </mxCell>
        <mxCell id="opBcABUMivw20Xhu-yU0-86" style="edgeStyle=orthogonalEdgeStyle;rounded=0;orthogonalLoop=1;jettySize=auto;html=1;endArrow=classic;endFill=1;strokeColor=#000000;" parent="opBcABUMivw20Xhu-yU0-1" source="opBcABUMivw20Xhu-yU0-2" target="opBcABUMivw20Xhu-yU0-76" edge="1">
          <mxGeometry relative="1" as="geometry" />
        </mxCell>
        <mxCell id="opBcABUMivw20Xhu-yU0-2" value="" style="whiteSpace=wrap;html=1;rounded=0;shadow=0;comic=0;labelBackgroundColor=none;strokeWidth=1;fillColor=#000000;fontFamily=Verdana;fontSize=12;align=center;rotation=0;" parent="opBcABUMivw20Xhu-yU0-1" vertex="1">
          <mxGeometry x="51.5" y="480" width="147" height="10" as="geometry" />
        </mxCell>
        <mxCell id="60571a20871a0731-8" value="Démarrage (branchement source de tension)" style="rounded=1;whiteSpace=wrap;html=1;shadow=0;comic=0;labelBackgroundColor=none;strokeWidth=1;fontFamily=Verdana;fontSize=12;align=center;arcSize=50;" parent="opBcABUMivw20Xhu-yU0-1" vertex="1">
          <mxGeometry x="25" y="80" width="200" height="40" as="geometry" />
        </mxCell>
        <mxCell id="opBcABUMivw20Xhu-yU0-81" style="edgeStyle=orthogonalEdgeStyle;rounded=0;orthogonalLoop=1;jettySize=auto;html=1;entryX=0.5;entryY=0;entryDx=0;entryDy=0;endArrow=classic;endFill=1;strokeColor=#000000;" parent="opBcABUMivw20Xhu-yU0-1" source="opBcABUMivw20Xhu-yU0-72" target="opBcABUMivw20Xhu-yU0-18" edge="1">
          <mxGeometry relative="1" as="geometry" />
        </mxCell>
        <mxCell id="opBcABUMivw20Xhu-yU0-72" value="Lance mode transfert de fichiers" style="rounded=1;whiteSpace=wrap;html=1;shadow=0;comic=0;labelBackgroundColor=none;strokeWidth=1;fontFamily=Verdana;fontSize=12;align=center;arcSize=50;" parent="opBcABUMivw20Xhu-yU0-1" vertex="1">
          <mxGeometry x="10" y="345" width="230" height="30" as="geometry" />
        </mxCell>
        <mxCell id="opBcABUMivw20Xhu-yU0-76" value="Initialise module WiFi" style="rounded=1;whiteSpace=wrap;html=1;shadow=0;comic=0;labelBackgroundColor=none;strokeWidth=1;fontFamily=Verdana;fontSize=12;align=center;arcSize=50;" parent="opBcABUMivw20Xhu-yU0-1" vertex="1">
          <mxGeometry x="15" y="504" width="220" height="30" as="geometry" />
        </mxCell>
        <mxCell id="opBcABUMivw20Xhu-yU0-18" value="" style="whiteSpace=wrap;html=1;rounded=0;shadow=0;comic=0;labelBackgroundColor=none;strokeWidth=1;fillColor=#000000;fontFamily=Verdana;fontSize=12;align=center;rotation=0;" parent="opBcABUMivw20Xhu-yU0-1" vertex="1">
          <mxGeometry x="51.5" y="390" width="147" height="10" as="geometry" />
        </mxCell>
        <mxCell id="OtmjJKUTakEoB7DOfb1s-8" style="edgeStyle=orthogonalEdgeStyle;rounded=0;orthogonalLoop=1;jettySize=auto;html=1;entryX=0.5;entryY=0;entryDx=0;entryDy=0;" edge="1" parent="opBcABUMivw20Xhu-yU0-1" source="OtmjJKUTakEoB7DOfb1s-4" target="OtmjJKUTakEoB7DOfb1s-7">
          <mxGeometry relative="1" as="geometry" />
        </mxCell>
        <mxCell id="OtmjJKUTakEoB7DOfb1s-4" value="Lance le webserveur" style="rounded=1;whiteSpace=wrap;html=1;shadow=0;comic=0;labelBackgroundColor=none;strokeWidth=1;fontFamily=Verdana;fontSize=12;align=center;arcSize=50;" vertex="1" parent="opBcABUMivw20Xhu-yU0-1">
          <mxGeometry x="15" y="625" width="220" height="30" as="geometry" />
        </mxCell>
        <mxCell id="OtmjJKUTakEoB7DOfb1s-10" style="edgeStyle=orthogonalEdgeStyle;rounded=0;orthogonalLoop=1;jettySize=auto;html=1;exitX=0.75;exitY=1;exitDx=0;exitDy=0;" edge="1" parent="opBcABUMivw20Xhu-yU0-1" source="OtmjJKUTakEoB7DOfb1s-7" target="OtmjJKUTakEoB7DOfb1s-1">
          <mxGeometry relative="1" as="geometry" />
        </mxCell>
        <mxCell id="OtmjJKUTakEoB7DOfb1s-7" value="" style="whiteSpace=wrap;html=1;rounded=0;shadow=0;comic=0;labelBackgroundColor=none;strokeWidth=1;fillColor=#000000;fontFamily=Verdana;fontSize=12;align=center;rotation=0;" vertex="1" parent="opBcABUMivw20Xhu-yU0-1">
          <mxGeometry x="51.5" y="670" width="147" height="10" as="geometry" />
        </mxCell>
        <mxCell id="OtmjJKUTakEoB7DOfb1s-1" value="Loop d&#39;acceptation des requêtes HTTP utilisateur,&amp;nbsp; et d&#39;exécution des requêtes (affichage liste fichiers, transfert de fichier, suppression de fichier)" style="rounded=1;whiteSpace=wrap;html=1;shadow=0;comic=0;labelBackgroundColor=none;strokeWidth=1;fontFamily=Verdana;fontSize=12;align=center;arcSize=50;" vertex="1" parent="opBcABUMivw20Xhu-yU0-1">
          <mxGeometry x="15" y="730" width="230" height="90" as="geometry" />
        </mxCell>
        <mxCell id="OtmjJKUTakEoB7DOfb1s-11" style="edgeStyle=orthogonalEdgeStyle;rounded=0;orthogonalLoop=1;jettySize=auto;html=1;entryX=0.75;entryY=0;entryDx=0;entryDy=0;exitX=0.5;exitY=1;exitDx=0;exitDy=0;" edge="1" parent="opBcABUMivw20Xhu-yU0-1" source="OtmjJKUTakEoB7DOfb1s-1" target="OtmjJKUTakEoB7DOfb1s-1">
          <mxGeometry relative="1" as="geometry">
            <Array as="points">
              <mxPoint x="130" y="830" />
              <mxPoint x="260" y="830" />
              <mxPoint x="260" y="710" />
              <mxPoint x="188" y="710" />
            </Array>
          </mxGeometry>
        </mxCell>
        <mxCell id="OtmjJKUTakEoB7DOfb1s-13" style="rounded=0;orthogonalLoop=1;jettySize=auto;html=1;entryX=0.25;entryY=1;entryDx=0;entryDy=0;dashed=1;endArrow=oval;endFill=0;" edge="1" parent="opBcABUMivw20Xhu-yU0-1" source="OtmjJKUTakEoB7DOfb1s-12" target="OtmjJKUTakEoB7DOfb1s-1">
          <mxGeometry relative="1" as="geometry" />
        </mxCell>
        <mxCell id="OtmjJKUTakEoB7DOfb1s-12" value="La loop s&#39;exécute tant que l&#39;ESP32 est sous tension" style="shape=note;whiteSpace=wrap;html=1;rounded=0;shadow=0;comic=0;labelBackgroundColor=none;strokeWidth=1;fontFamily=Verdana;fontSize=12;align=center;size=20;" vertex="1" parent="opBcABUMivw20Xhu-yU0-1">
          <mxGeometry x="30" y="850" width="190" height="60" as="geometry" />
        </mxCell>
        <mxCell id="1c1d494c118603dd-28" style="edgeStyle=orthogonalEdgeStyle;rounded=0;html=1;entryX=0.5;entryY=0;labelBackgroundColor=none;startArrow=none;startFill=0;startSize=5;endArrow=classicThin;endFill=1;endSize=5;jettySize=auto;orthogonalLoop=1;strokeWidth=1;fontFamily=Verdana;fontSize=12;entryDx=0;entryDy=0;" parent="1c1d494c118603dd-1" source="60571a20871a0731-8" target="opBcABUMivw20Xhu-yU0-65" edge="1">
          <mxGeometry relative="1" as="geometry">
            <Array as="points">
              <mxPoint x="880" y="145" />
              <mxPoint x="375" y="145" />
            </Array>
            <mxPoint x="353.5" y="180" as="targetPoint" />
          </mxGeometry>
        </mxCell>
        <mxCell id="1c1d494c118603dd-29" style="edgeStyle=orthogonalEdgeStyle;rounded=0;html=1;exitX=0.5;exitY=1;labelBackgroundColor=none;startArrow=none;startFill=0;startSize=5;endArrow=classicThin;endFill=1;endSize=5;jettySize=auto;orthogonalLoop=1;strokeWidth=1;fontFamily=Verdana;fontSize=12;exitDx=0;exitDy=0;entryX=0.5;entryY=0;entryDx=0;entryDy=0;" parent="1c1d494c118603dd-1" source="opBcABUMivw20Xhu-yU0-65" target="1c1d494c118603dd-5" edge="1">
          <mxGeometry relative="1" as="geometry">
            <Array as="points">
              <mxPoint x="375" y="210" />
              <mxPoint x="125" y="210" />
            </Array>
            <mxPoint x="390.2500000000002" y="190" as="sourcePoint" />
          </mxGeometry>
        </mxCell>
        <mxCell id="opBcABUMivw20Xhu-yU0-17" value="Gps" style="swimlane;html=1;startSize=20;" parent="1c1d494c118603dd-1" vertex="1">
          <mxGeometry x="1020" y="20" width="250" height="920" as="geometry" />
        </mxCell>
        <mxCell id="opBcABUMivw20Xhu-yU0-33" value="Accel/Gyro" style="swimlane;html=1;startSize=20;" parent="1c1d494c118603dd-1" vertex="1">
          <mxGeometry x="1270" y="20" width="250" height="920" as="geometry" />
        </mxCell>
        <mxCell id="opBcABUMivw20Xhu-yU0-49" value="Module SD" style="swimlane;html=1;startSize=20;" parent="1c1d494c118603dd-1" vertex="1">
          <mxGeometry x="1520" y="20" width="250" height="920" as="geometry" />
        </mxCell>
        <mxCell id="opBcABUMivw20Xhu-yU0-74" value="Initialise le module SD" style="rounded=1;whiteSpace=wrap;html=1;shadow=0;comic=0;labelBackgroundColor=none;strokeWidth=1;fontFamily=Verdana;fontSize=12;align=center;arcSize=50;" parent="opBcABUMivw20Xhu-yU0-49" vertex="1">
          <mxGeometry x="40" y="423.5" width="173.5" height="30" as="geometry" />
        </mxCell>
        <mxCell id="1c1d494c118603dd-27" style="edgeStyle=orthogonalEdgeStyle;rounded=0;html=1;labelBackgroundColor=none;startArrow=none;startFill=0;startSize=5;endArrow=classicThin;endFill=1;endSize=5;jettySize=auto;orthogonalLoop=1;strokeWidth=1;fontFamily=Verdana;fontSize=12" parent="1c1d494c118603dd-1" source="60571a20871a0731-4" target="60571a20871a0731-8" edge="1">
          <mxGeometry relative="1" as="geometry" />
        </mxCell>
        <mxCell id="1c1d494c118603dd-48" style="edgeStyle=none;rounded=0;html=1;dashed=1;labelBackgroundColor=none;startArrow=none;startFill=0;startSize=5;endArrow=oval;endFill=0;endSize=5;jettySize=auto;orthogonalLoop=1;strokeWidth=1;fontFamily=Verdana;fontSize=12;entryX=1;entryY=0.5;entryDx=0;entryDy=0;" parent="1c1d494c118603dd-1" source="1c1d494c118603dd-20" target="opBcABUMivw20Xhu-yU0-65" edge="1">
          <mxGeometry relative="1" as="geometry" />
        </mxCell>
        <mxCell id="opBcABUMivw20Xhu-yU0-70" style="edgeStyle=orthogonalEdgeStyle;rounded=0;orthogonalLoop=1;jettySize=auto;html=1;entryX=0.5;entryY=0;entryDx=0;entryDy=0;exitX=0.5;exitY=1;exitDx=0;exitDy=0;" parent="1c1d494c118603dd-1" source="1c1d494c118603dd-5" target="opBcABUMivw20Xhu-yU0-69" edge="1">
          <mxGeometry relative="1" as="geometry" />
        </mxCell>
        <mxCell id="opBcABUMivw20Xhu-yU0-71" style="rounded=0;orthogonalLoop=1;jettySize=auto;html=1;entryX=1;entryY=0.5;entryDx=0;entryDy=0;dashed=1;endArrow=oval;endFill=0;" parent="1c1d494c118603dd-1" source="1c1d494c118603dd-20" target="1c1d494c118603dd-5" edge="1">
          <mxGeometry relative="1" as="geometry" />
        </mxCell>
        <mxCell id="opBcABUMivw20Xhu-yU0-73" style="edgeStyle=orthogonalEdgeStyle;rounded=0;orthogonalLoop=1;jettySize=auto;html=1;entryX=0.5;entryY=0;entryDx=0;entryDy=0;endArrow=classic;endFill=1;strokeColor=#000000;exitX=0.5;exitY=1;exitDx=0;exitDy=0;" parent="1c1d494c118603dd-1" source="opBcABUMivw20Xhu-yU0-69" target="opBcABUMivw20Xhu-yU0-72" edge="1">
          <mxGeometry relative="1" as="geometry">
            <Array as="points">
              <mxPoint x="625" y="345" />
              <mxPoint x="875" y="345" />
            </Array>
          </mxGeometry>
        </mxCell>
        <mxCell id="opBcABUMivw20Xhu-yU0-82" style="edgeStyle=orthogonalEdgeStyle;rounded=0;orthogonalLoop=1;jettySize=auto;html=1;endArrow=classic;endFill=1;strokeColor=#000000;exitX=0.75;exitY=1;exitDx=0;exitDy=0;" parent="1c1d494c118603dd-1" source="opBcABUMivw20Xhu-yU0-18" target="opBcABUMivw20Xhu-yU0-74" edge="1">
          <mxGeometry relative="1" as="geometry">
            <Array as="points">
              <mxPoint x="912" y="430" />
              <mxPoint x="1625" y="430" />
            </Array>
          </mxGeometry>
        </mxCell>
        <mxCell id="opBcABUMivw20Xhu-yU0-84" style="edgeStyle=orthogonalEdgeStyle;rounded=0;orthogonalLoop=1;jettySize=auto;html=1;entryX=0.5;entryY=0;entryDx=0;entryDy=0;endArrow=classic;endFill=1;strokeColor=#000000;exitX=0.25;exitY=1;exitDx=0;exitDy=0;" parent="1c1d494c118603dd-1" source="opBcABUMivw20Xhu-yU0-18" target="opBcABUMivw20Xhu-yU0-83" edge="1">
          <mxGeometry relative="1" as="geometry">
            <Array as="points">
              <mxPoint x="838" y="430" />
              <mxPoint x="375" y="430" />
            </Array>
          </mxGeometry>
        </mxCell>
        <mxCell id="opBcABUMivw20Xhu-yU0-87" style="edgeStyle=orthogonalEdgeStyle;rounded=0;orthogonalLoop=1;jettySize=auto;html=1;entryX=0.75;entryY=0;entryDx=0;entryDy=0;endArrow=classic;endFill=1;strokeColor=#000000;exitX=0.5;exitY=1;exitDx=0;exitDy=0;" parent="1c1d494c118603dd-1" source="opBcABUMivw20Xhu-yU0-74" target="opBcABUMivw20Xhu-yU0-2" edge="1">
          <mxGeometry relative="1" as="geometry">
            <Array as="points">
              <mxPoint x="1625" y="480" />
              <mxPoint x="912" y="480" />
            </Array>
          </mxGeometry>
        </mxCell>
        <mxCell id="opBcABUMivw20Xhu-yU0-88" style="edgeStyle=orthogonalEdgeStyle;rounded=0;orthogonalLoop=1;jettySize=auto;html=1;entryX=0.25;entryY=0;entryDx=0;entryDy=0;endArrow=classic;endFill=1;strokeColor=#000000;exitX=0.5;exitY=1;exitDx=0;exitDy=0;" parent="1c1d494c118603dd-1" source="opBcABUMivw20Xhu-yU0-83" target="opBcABUMivw20Xhu-yU0-2" edge="1">
          <mxGeometry relative="1" as="geometry">
            <Array as="points">
              <mxPoint x="375" y="480" />
              <mxPoint x="838" y="480" />
            </Array>
          </mxGeometry>
        </mxCell>
        <mxCell id="OtmjJKUTakEoB7DOfb1s-3" style="edgeStyle=orthogonalEdgeStyle;rounded=0;orthogonalLoop=1;jettySize=auto;html=1;exitX=0.5;exitY=1;exitDx=0;exitDy=0;" edge="1" parent="1c1d494c118603dd-1" source="opBcABUMivw20Xhu-yU0-76" target="opBcABUMivw20Xhu-yU0-92">
          <mxGeometry relative="1" as="geometry">
            <Array as="points">
              <mxPoint x="875" y="570" />
              <mxPoint x="375" y="570" />
            </Array>
          </mxGeometry>
        </mxCell>
        <mxCell id="OtmjJKUTakEoB7DOfb1s-5" style="edgeStyle=orthogonalEdgeStyle;rounded=0;orthogonalLoop=1;jettySize=auto;html=1;entryX=0.5;entryY=0;entryDx=0;entryDy=0;exitX=0.5;exitY=1;exitDx=0;exitDy=0;" edge="1" parent="1c1d494c118603dd-1" source="opBcABUMivw20Xhu-yU0-92" target="OtmjJKUTakEoB7DOfb1s-4">
          <mxGeometry relative="1" as="geometry">
            <Array as="points">
              <mxPoint x="375" y="630" />
              <mxPoint x="875" y="630" />
            </Array>
          </mxGeometry>
        </mxCell>
        <mxCell id="OtmjJKUTakEoB7DOfb1s-9" style="edgeStyle=orthogonalEdgeStyle;rounded=0;orthogonalLoop=1;jettySize=auto;html=1;entryX=0.5;entryY=0;entryDx=0;entryDy=0;exitX=0.25;exitY=1;exitDx=0;exitDy=0;" edge="1" parent="1c1d494c118603dd-1" source="OtmjJKUTakEoB7DOfb1s-7" target="opBcABUMivw20Xhu-yU0-80">
          <mxGeometry relative="1" as="geometry">
            <Array as="points">
              <mxPoint x="838" y="710" />
              <mxPoint x="375" y="710" />
            </Array>
          </mxGeometry>
        </mxCell>
      </root>
    </mxGraphModel>
  </diagram>
</mxfile>
